<?xml version="1.0" encoding="UTF-8" standalone="no"?>
<svg
   xmlns:dc="http://purl.org/dc/elements/1.1/"
   xmlns:cc="http://creativecommons.org/ns#"
   xmlns:rdf="http://www.w3.org/1999/02/22-rdf-syntax-ns#"
   xmlns:svg="http://www.w3.org/2000/svg"
   xmlns="http://www.w3.org/2000/svg"
   xmlns:sodipodi="http://sodipodi.sourceforge.net/DTD/sodipodi-0.dtd"
   xmlns:inkscape="http://www.inkscape.org/namespaces/inkscape"
   sodipodi:docname="BSidesBoulderCorp.svg"
   inkscape:version="1.0 (4035a4fb49, 2020-05-01)"
   inkscape:export-ydpi="96"
   inkscape:export-xdpi="96"
   inkscape:export-filename="C:\Users\punkcoder\BsidesWhite.png"
   id="svg8"
   version="1.1"
   viewBox="0 0 210 297"
   height="297mm"
   width="210mm">
  <defs
     id="defs2" />
  <sodipodi:namedview
     inkscape:window-maximized="1"
     inkscape:window-y="12"
     inkscape:window-x="2556"
     inkscape:window-height="1379"
     inkscape:window-width="2560"
     showgrid="false"
     inkscape:document-rotation="0"
     inkscape:current-layer="layer1"
     inkscape:document-units="mm"
     inkscape:cy="364.87103"
     inkscape:cx="510.93672"
     inkscape:zoom="1.979899"
     inkscape:pageshadow="2"
     inkscape:pageopacity="0.0"
     borderopacity="1.0"
     bordercolor="#666666"
     pagecolor="#ffffff"
     id="base" />
  <metadata
     id="metadata5">
    <rdf:RDF>
      <cc:Work
         rdf:about="">
        <dc:format>image/svg+xml</dc:format>
        <dc:type
           rdf:resource="http://purl.org/dc/dcmitype/StillImage" />
        <dc:title></dc:title>
      </cc:Work>
    </rdf:RDF>
  </metadata>
  <g
     id="layer1"
     inkscape:groupmode="layer"
     inkscape:label="Layer 1">
    <path
       transform="scale(0.26458333)"
       d="M 684.64844 385.36523 C 683.65601 385.2074 680.24182 387.98238 674.93945 393.25391 C 672.85564 395.32551 670.93128 397.02201 670.66406 397.03711 C 670.39681 397.04648 668.61063 398.53777 666.69531 400.35156 C 663.6308 403.25375 662.75584 403.76963 659.39844 404.65234 C 657.15545 405.24197 655.3781 405.46392 655.08594 405.19141 C 654.79422 404.91861 654.79706 403.86218 655.09375 402.62695 C 655.76371 399.8386 655.65399 397.55964 654.85156 397.58984 C 654.19641 397.61275 650.69867 400.10058 644.45508 404.98438 C 642.58164 406.44973 640.15067 408.05841 639.05469 408.55859 C 637.95866 409.05873 635.83643 410.70548 634.33789 412.2168 C 633.43937 413.09751 631.02017 415.206 628.53125 416.72461 C 626.34338 416.83377 624.17934 416.94475 621.94922 417.04883 C 621.82799 416.74368 621.7376 416.38443 621.6875 415.96094 C 621.6449 414.74899 621.85818 413.25379 622.16016 412.63867 C 623.43791 410.03613 619.7172 410.3147 617.46094 412.99023 C 616.94866 413.59779 615.69001 414.47916 614.66406 414.94922 C 613.67793 415.40105 612.12063 416.53455 611.11133 417.51953 C 586.31496 418.52795 559.68166 419.06593 534.42773 418.2207 C 514.90277 417.38943 495.53173 416.719 491.38086 416.72656 C 483.88768 416.74349 483.80548 416.71513 479.93555 412.75195 C 472.44834 405.08435 489.52571 405.66299 279.92773 405.96875 L 91.927734 406.24219 L 87.277344 409.47266 C 81.82866 413.25657 77.427734 421.07445 77.427734 426.9707 C 77.427734 434.6809 82.71361 443.19128 89.630859 446.61523 L 93.927734 448.74023 L 281.86133 448.74219 L 469.79492 448.74219 L 474.22266 446.59961 C 476.7083 445.39632 479.80764 442.78088 481.28906 440.63672 L 483.92773 436.81836 L 493.92773 436.74219 C 499.42774 436.69986 508.87773 436.45471 514.92773 436.19922 C 535.98755 435.30963 571.84131 433.87128 595.10547 432.96094 L 595.11133 432.96289 L 653.83008 430.98242 L 671.32617 430.37695 C 674.62142 430.31739 677.60129 430.26217 679.51562 430.19727 C 685.29063 430.18657 713.53273 428.91526 714.17578 428.89258 L 713.78516 427.15625 C 713.18762 424.49504 710.89826 419.76005 707.78906 414.75195 C 705.72922 411.43416 703.54964 408.91439 699.66992 405.36719 C 696.63972 402.59665 694.35278 400.0782 694.33008 399.49219 C 694.30445 398.75953 693.63976 398.28209 692.00391 397.82227 C 689.95174 397.24544 689.6601 396.95444 689.20898 395.04102 C 688.90102 393.73519 688.13635 392.47236 687.24023 391.79102 C 686.04178 390.87955 685.75042 390.20465 685.63477 388.08789 C 685.53306 386.19321 685.26878 385.46383 684.64844 385.36523 z "
       style="fill:#ffffff;fill-opacity:1;stroke:#000000;stroke-width:1.51181;stroke-miterlimit:4;stroke-dasharray:none;stroke-opacity:1"
       id="path879" />
    <path
       inkscape:export-ydpi="582.35999"
       inkscape:export-xdpi="582.35999"
       sodipodi:nodetypes="csccsscscssscccscccccccccc"
       style="fill:#ffffff;stroke:#000000;stroke-width:0.4;stroke-miterlimit:4;stroke-dasharray:none;fill-opacity:1;stroke-opacity:1"
       d="m 23.71477,130.86679 c -1.830189,-0.90592 -3.2289,-3.15732 -3.2289,-5.19731 0,-1.56005 1.164423,-3.62878 2.606054,-4.62994 l 1.230404,-0.85445 49.74166,-0.0726 c 55.456132,-0.0809 50.937832,-0.23415 52.918822,1.79457 1.02392,1.04859 1.04555,1.05611 3.02812,1.05163 1.09825,-0.002 6.22354,0.17544 11.38952,0.39538 27.10278,1.15387 35.07139,1.46942 37.88249,1.50012 2.89661,0.0316 3.1646,-0.0101 4.28668,-0.6677 0.65828,-0.38578 1.40692,-1.05697 1.66362,-1.49153 0.33416,-0.56568 0.66893,-0.79009 1.17866,-0.79009 0.69866,0 0.70634,0.0183 0.41163,0.97848 -0.41324,1.34645 -1.93411,2.8683 -3.22203,3.2241 -0.58209,0.16081 -2.3085,0.29469 -3.83647,0.29752 -1.52797,0.003 -5.09984,0.1162 -7.9375,0.25194 -2.83765,0.13574 -7.06437,0.31633 -9.3927,0.4013 -3.87121,0.14128 -19.14827,0.75548 -26.19375,1.05309 -1.60073,0.0676 -4.10104,0.1321 -5.55625,0.1433 l -2.64583,0.0203 -0.69813,1.01042 c -0.39196,0.56731 -1.21182,1.25909 -1.86948,1.57746 l -1.17134,0.56705 -49.724282,-2.1e-4 -49.72428,-2.1e-4 z"
       id="path5327"
       inkscape:connector-curvature="0" />
    <text
       inkscape:export-ydpi="582.35999"
       inkscape:export-xdpi="582.35999"
       id="text5225-9"
       y="116.35025"
       x="79.44191"
       style="font-style:normal;font-variant:normal;font-weight:normal;font-stretch:normal;font-size:8.46667px;line-height:1.25;font-family:monospace;-inkscape-font-specification:monospace;letter-spacing:0px;word-spacing:0px;fill:#ffffff;fill-opacity:1;stroke:#000000;stroke-width:0.4;stroke-miterlimit:4;stroke-dasharray:none;stroke-opacity:1"
       xml:space="preserve"><tspan
         style="font-style:normal;font-variant:normal;font-weight:normal;font-stretch:normal;font-size:8.46667px;font-family:Eyechart;-inkscape-font-specification:Eyechart;fill:#ffffff;stroke:#000000;stroke-width:0.4;stroke-miterlimit:4;stroke-dasharray:none;fill-opacity:1;stroke-opacity:1"
         y="116.35025"
         x="79.44191"
         id="tspan5223-2"
         sodipodi:role="line">BOULDER</tspan></text>
    <path
       inkscape:export-ydpi="582.35999"
       inkscape:export-xdpi="582.35999"
       sodipodi:nodetypes="ccscscccccscscscscccssssccscc"
       inkscape:connector-curvature="0"
       id="path5331"
       d="m 25.195248,144.51772 c -1.950372,-0.59328 -3.105445,-1.6055 -3.94481,-3.45696 -1.038383,-2.29044 -0.495206,-4.59501 1.508921,-6.40191 0.596576,-0.53787 1.555249,-1.10467 2.130379,-1.25952 0.72591,-0.19547 16.0834,-0.26051 50.21968,-0.21268 l 49.173992,0.0689 1.19063,0.70091 c 0.65484,0.3855 1.51897,1.07012 1.92027,1.52135 0.66702,0.75003 0.8714,0.82103 2.38125,0.82718 0.90838,0.004 3.08036,0.0646 4.82661,0.13541 11.6344,0.47154 26.27088,0.94268 33.47173,1.07743 8.10876,0.15174 8.46765,0.13752 9.17932,-0.36383 1.36735,-0.96324 1.7743,-0.95122 3.71967,0.10992 l 1.8183,0.99184 0.85498,-0.6088 c 0.74741,-0.53221 0.95084,-0.56908 1.61709,-0.29311 1.08246,0.44837 1.76908,1.25653 1.38979,1.63582 -0.2205,0.2205 -0.47026,0.18458 -0.9634,-0.13854 -0.85767,-0.56197 -1.11839,-0.54945 -1.93507,0.093 -0.91445,0.71931 -1.50901,0.66728 -3.02347,-0.26458 -0.70951,-0.43656 -1.47464,-0.79375 -1.7003,-0.79375 -0.5965,0 -1.45443,0.48739 -2.35989,1.34067 -0.92279,0.86961 -0.50327,0.83951 -18.38853,1.31925 -5.60256,0.15028 -14.70457,0.44461 -20.22667,0.65407 l -10.0402,0.38083 -1.139,1.15529 c -2.17198,2.20302 2.29904,2.03193 -52.431302,2.00631 -26.72275,-0.0125 -48.88524,-0.11351 -49.24997,-0.22446 z"
       style="fill:#ffffff;stroke:#000000;stroke-width:0.4;stroke-miterlimit:4;stroke-dasharray:none;fill-opacity:1;stroke-opacity:1" />
    <path
       inkscape:export-ydpi="582.35999"
       inkscape:export-xdpi="582.35999"
       sodipodi:nodetypes="ccccssccccccccccccccsccssscccccccccsscccccccccccccsccccccccccccccccccscccccccccccccscccccccccscccccccccccccccccccccscscccsccccsccccccccscccccsccccsccccccccscccccsssccccsscscccccccccccccccccccccccccccccccccccccsccccsccccccccccccccccccscccc"
       inkscape:connector-curvature="0"
       style="opacity:0.978;fill:#ffffff;stroke:#000000;stroke-width:0.4;stroke-miterlimit:4;stroke-dasharray:none;fill-opacity:1;stroke-opacity:1"
       id="path949-02"
       d="m 36.888578,146.00758 c -6.38606,-0.72374 -11.47892,-5.38187 -12.826916,-11.73293 -0.233479,-1.09969 -0.318868,-3.38408 -0.171479,-4.58727 l 0.105919,-0.86468 h 3.419476 c 1.88069,0 3.41948,0.0104 3.41948,0.0231 0,0.0127 -0.0907,0.38419 -0.20159,0.8255 -0.35938,1.43049 -0.36113,2.65828 -0.006,4.02267 0.53709,2.06199 2.09869,3.95128 4.05968,4.91167 1.02359,0.50131 1.89898,0.72099 3.09028,0.7756 2.16548,0.0993 4.06567,-0.60581 5.61156,-2.08219 1.44519,-1.38029 2.23389,-2.96858 2.43499,-4.90387 0.29889,-2.87748 -1.1379,-5.74776 -3.66858,-7.32895 -0.40943,-0.25582 -0.78051,-0.47728 -0.82463,-0.49214 -0.13888,-0.0468 1.5694,-8.43385 1.94909,-9.56974 0.7967,-2.38288 2.27989,-4.64417 4.10728,-6.26206 1.93158,-1.71019 4.07437,-2.80678 6.69525,-3.42648 0.96405,-0.22794 1.1024,-0.23862 3.08369,-0.23795 1.83318,5.9e-4 2.17278,0.0226 2.92098,0.18921 1.35639,0.30204 2.37258,0.66256 3.64067,1.29179 1.54509,0.76664 2.56199,1.5001 3.81008,2.74819 1.24809,1.24809 1.98159,2.26498 2.74818,3.81007 0.63687,1.2836 1.0002,2.31459 1.28289,3.64068 0.35763,1.67759 0.29833,5.63027 -0.0845,5.63027 -0.0773,0 -1.71358,-0.2286 -3.63627,-0.508 -1.92269,-0.2794 -3.51438,-0.508 -3.53728,-0.508 -0.0229,0 -0.0167,-0.31433 0.0136,-0.69849 0.0632,-0.80022 -0.059,-1.85929 -0.315,-2.73049 -0.64253,-2.18618 -2.41818,-4.12157 -4.56977,-4.98067 -1.02769,-0.41035 -1.62589,-0.51532 -2.90858,-0.51041 -1.37209,0.005 -2.05499,0.15319 -3.21368,0.69615 -0.88414,0.41432 -1.34759,0.73106 -2.07799,1.42009 -2.45888,2.31959 -3.09628,6.02517 -1.56359,9.08985 0.50306,1.00589 1.42059,2.09888 2.28029,2.71618 0.43459,0.31211 0.5598,0.61811 0.9111,2.22659 0.16283,0.74551 0.18715,1.10999 0.18715,2.80418 0,1.71139 -0.0234,2.05459 -0.19298,2.83278 -0.45422,2.08419 -1.31189,4.07297 -2.44798,5.67616 -0.67044,0.94612 -2.25139,2.57069 -3.15808,3.24518 -1.82339,1.3566 -4.08508,2.32509 -6.34516,2.71739 -0.96827,0.16803 -3.08658,0.23709 -4.02168,0.13112 z m 21.49987,-0.55126 c -1.57089,-0.22939 -2.86708,-0.6431 -4.29948,-1.37229 -0.85855,-0.43708 -2.06938,-1.25369 -2.32908,-1.57079 -0.12668,-0.15469 -0.17436,-0.0715 0.62244,-1.08569 0.5949,-0.75723 1.40079,-2.12479 1.78058,-3.02179 l 0.32216,-0.76079 0.6843,0.55728 c 1.46959,1.19679 3.23428,2.15738 4.53657,2.46938 2.12419,0.50893 4.31817,-0.15585 4.31707,-1.30799 -7.6e-4,-0.79867 -0.86227,-1.26589 -3.52788,-1.91339 -1.79158,-0.43516 -2.51418,-0.68112 -3.53987,-1.20489 -2.09519,-1.0699 -2.98108,-2.74758 -2.58339,-4.89227 0.15087,-0.81357 0.59533,-2.07079 0.95808,-2.71018 l 0.35434,-0.62455 1.143,-0.0567 c 1.36249,-0.0676 2.28038,-0.3063 3.38138,-0.87946 1.09079,-0.56782 2.19378,-1.54539 2.80458,-2.48579 0.13038,-0.20074 0.15154,-0.20374 1.39699,-0.19861 1.39509,0.006 2.54688,0.16587 3.63528,0.50532 0.75471,0.23541 1.90578,0.78032 2.26948,1.07439 l 0.23748,0.19202 -0.20457,0.54345 c -0.44545,1.18329 -1.14459,2.42918 -2.02859,3.61498 l -0.58561,0.78554 -0.39444,-0.29987 c -1.44529,-1.09879 -3.07308,-1.63349 -4.69997,-1.54389 -0.70162,0.0387 -0.91859,0.0863 -1.31319,0.28803 -0.5798,0.29652 -0.8583,0.6765 -0.8583,1.17109 0,0.40245 0.21038,0.73254 0.59296,0.93038 0.13164,0.0681 1.01409,0.31344 1.96099,0.54529 3.54158,0.8671 4.97407,1.43959 5.90426,2.35959 1.00629,0.99521 1.32249,1.93569 1.25769,3.74077 -0.0376,1.0458 -0.067,1.215 -0.34514,1.97989 -0.53775,1.47909 -1.19,2.33659 -2.48209,3.26318 -0.88496,0.63458 -2.35488,1.36159 -3.25118,1.60799 -1.54099,0.4237 -3.99137,0.5525 -5.71706,0.30051 z m 70.320552,0.0433 c -2.57718,-0.35484 -5.04246,-1.39869 -6.75765,-2.86128 l -0.45001,-0.38373 1.93099,-1.93239 c 1.06199,-1.06279 1.95739,-1.93239 1.98969,-1.93239 0.0323,0 0.37551,0.22903 0.76268,0.50896 0.90951,0.6576 2.72008,1.55579 3.57738,1.77469 0.8145,0.20799 1.97099,0.22465 2.75568,0.0397 1.58689,-0.37401 2.09909,-1.43609 1.07929,-2.23819 -0.35166,-0.27661 -1.45259,-0.64688 -3.18868,-1.07249 -2.43608,-0.59718 -3.72707,-1.17009 -4.72417,-2.09669 -1.27059,-1.18069 -1.60359,-2.78618 -1.00249,-4.83227 0.95039,-3.23478 3.13068,-5.13716 6.64736,-5.79996 3.39438,-0.63982 6.74476,-0.20593 8.80974,1.14089 0.54682,0.35665 1.18529,0.92299 1.18529,1.0514 0,0.0369 -0.80431,1.00419 -1.78738,2.14948 l -1.78739,2.08239 -0.18111,-0.16929 c -0.31751,-0.29676 -1.06069,-0.75784 -1.68879,-1.04769 -1.02269,-0.47198 -1.57729,-0.58792 -2.81028,-0.58743 -0.97182,4.2e-4 -1.1529,0.0237 -1.54709,0.19948 -1.0184,0.45403 -1.2984,1.45079 -0.56877,2.02469 0.26268,0.20662 0.77705,0.36447 2.66618,0.81821 1.64229,0.39444 3.39288,0.96396 4.22798,1.37539 0.79199,0.39025 1.63709,1.2044 1.97458,1.90229 0.41046,0.84879 0.51129,1.42109 0.46682,2.64949 -0.0344,0.95071 -0.0768,1.21019 -0.31099,1.90498 -0.50441,1.49639 -1.27229,2.50649 -2.63308,3.46368 -1.18089,0.8306 -2.47798,1.39649 -3.93698,1.71759 -0.86913,0.19129 -3.73557,0.28301 -4.69897,0.15036 z m -58.165632,-0.27753 c 0,-0.0608 0.51545,-2.79448 1.14539,-6.07476 0.62999,-3.28038 1.48799,-7.75495 1.90669,-9.94354 0.41869,-2.18858 0.78257,-4.08407 0.80863,-4.21217 l 0.0474,-0.23283 h 3.21628 c 3.02358,0 3.21358,0.009 3.17178,0.14816 -0.0245,0.0815 -0.58094,2.94848 -1.2366,6.37116 -0.65565,3.42268 -1.28789,6.71826 -1.40479,7.32365 -0.11697,0.60536 -0.44102,2.30079 -0.72013,3.76768 -0.2791,1.46679 -0.52741,2.73368 -0.55178,2.81518 -0.0412,0.13768 -0.26857,0.14817 -3.21358,0.14817 -2.55048,0 -3.16928,-0.0216 -3.16928,-0.11051 z m 9.52484,-0.08 c 0.025,-0.10478 0.34728,-1.77159 0.71611,-3.70417 0.69648,-3.64928 1.72779,-9.03275 2.65188,-13.84292 l 0.53676,-2.79398 5.41356,-0.0248 c 3.58428,-0.0164 5.64247,0.007 6.09086,0.0678 2.98988,0.40861 4.818972,1.94119 5.561972,4.66057 0.17663,0.64644 0.195,0.88981 0.1914,2.53538 -0.004,1.99749 -0.0731,2.52399 -0.59613,4.56468 -0.791142,3.08678 -2.135592,5.15876 -4.437572,6.83895 -1.00059,0.73034 -1.94729,1.1534 -3.26828,1.46069 -1.74199,0.40523 -2.13819,0.42731 -7.67645,0.42784 l -5.22977,5e-4 z m 10.95693,-4.67757 c 0.29864,-0.0725 0.73067,-0.23389 0.96006,-0.35874 0.48596,-0.26449 1.15499,-0.96598 1.50759,-1.58089 0.65437,-1.14089 1.34959,-4.14707 1.34959,-5.83546 0,-1.55819 -0.44063,-2.39198 -1.52399,-2.88358 -0.66175,-0.30031 -1.39769,-0.40178 -2.70609,-0.37314 l -1.13979,0.025 -0.4006,2.07429 c -0.22032,1.14089 -0.69071,3.59827 -1.04529,5.46096 -0.35458,1.86269 -0.666,3.45928 -0.692,3.54808 -0.0457,0.15604 0.006,0.15964 1.55009,0.10833 0.97559,-0.0324 1.80878,-0.10435 2.14038,-0.18482 z m 10.674932,4.80437 c 0,-0.0355 0.83858,-4.42667 1.86349,-9.75814 1.0249,-5.33156 1.90519,-9.93173 1.95599,-10.22293 l 0.0925,-0.52916 h 8.54265 c 6.78015,0 8.54154,0.0218 8.53774,0.10583 -0.003,0.0582 -0.18564,1.03929 -0.40663,2.18019 l -0.40177,2.07428 -5.35067,0.0218 c -2.94288,0.012 -5.35097,0.031 -5.35127,0.0423 0,0.0113 -0.13366,0.70634 -0.29626,1.54449 -0.1626,0.83816 -0.29567,1.55259 -0.2957,1.58749 -3e-5,0.0349 2.20748,0.0635 4.90557,0.0635 2.69808,0 4.92057,0.0286 4.93867,0.0635 0.0182,0.0349 -0.14329,0.9779 -0.35882,2.09549 l -0.39188,2.03199 -4.97017,0.0218 c -2.73358,0.012 -4.97017,0.0381 -4.97017,0.0579 0,0.0198 -0.1713,0.9244 -0.38069,2.01018 -0.20939,1.08579 -0.38084,1.98359 -0.381,1.99519 0,0.0116 2.47688,0.0212 5.50456,0.0212 h 5.50497 l -0.0466,0.1905 c -0.0256,0.10477 -0.22845,1.14299 -0.45076,2.30718 l -0.4042,2.11669 -8.69475,0.0216 c -4.78217,0.0119 -8.69475,-0.007 -8.69475,-0.043 z M 37.039478,134.75896 c -1.12839,-0.41898 -1.86179,-1.31379 -2.05629,-2.50869 -0.348,-2.13828 1.70439,-4.00997 3.81338,-3.47748 1.01549,0.2564 1.82619,0.98388 2.19929,1.97359 0.26384,0.69985 0.21314,1.73559 -0.11719,2.39459 -0.32185,0.642 -0.90326,1.21019 -1.52549,1.49079 -0.69315,0.31256 -1.66979,0.36625 -2.31359,0.12719 z M 19.62859,126.81451 c 0.0192,-0.0829 0.891944,-4.62747 1.939287,-10.09894 1.047394,-5.47156 1.924788,-10.03594 1.949888,-10.14194 l 0.0456,-0.1938 6.792053,0.0285 c 6.22966,0.0262 6.83406,0.0411 7.29996,0.18005 2.18228,0.65089 3.29338,2.26299 3.08238,4.47208 -0.12351,1.29299 -0.67438,2.42698 -1.66329,3.42407 -0.50937,0.51356 -0.77001,0.69523 -1.54279,1.0754 l -0.92988,0.45746 0.61675,0.22493 c 1.14869,0.41895 2.07689,1.2367 2.44019,2.14959 0.16424,0.41285 0.19249,0.6421 0.19504,1.58339 0.003,1.26739 -0.15173,1.90919 -0.72678,3.00568 -0.49744,0.94853 -0.42042,0.89699 -1.42919,0.95629 -2.02239,0.11886 -3.71858,0.89033 -5.14487,2.34008 l -0.63022,0.64057 -6.16446,0.0238 c -5.87536,0.0227 -6.162858,0.0167 -6.129458,-0.127 z m 11.543928,-4.34678 c 0.79933,-0.12968 1.31139,-0.3815 1.73589,-0.85364 0.42427,-0.47189 0.64029,-1.01889 0.64029,-1.62139 0,-0.61951 -0.26059,-1.02509 -0.84217,-1.31069 l -0.47016,-0.2309 -2.25718,-0.0272 c -2.12349,-0.0256 -2.25989,-0.0181 -2.30309,0.127 -0.0779,0.26136 -0.73131,3.71518 -0.73131,3.86527 0,0.12764 0.17799,0.14123 1.84148,0.14065 1.0128,-3.4e-4 2.08659,-0.0404 2.38629,-0.089 z m 1.32129,-8.16734 c 0.98369,-0.25167 1.57839,-0.90143 1.75159,-1.91379 0.0828,-0.48375 0.074,-0.58073 -0.0847,-0.93935 -0.33965,-0.76726 -0.99013,-0.93872 -3.40338,-0.89707 l -1.56389,0.027 -0.35698,1.82029 c -0.19634,1.00119 -0.35938,1.86799 -0.3623,1.92619 -0.008,0.16634 3.35457,0.14689 4.01967,-0.0233 z m 23.22685,8.89144 c -0.87792,-0.28137 -1.69539,-1.07749 -1.99878,-1.94679 -0.0935,-0.26781 -0.14764,-0.67364 -0.14738,-1.10469 3.4e-4,-0.59763 0.0343,-0.75027 0.2765,-1.24219 0.63828,-1.29659 2.04858,-2.03139 3.37337,-1.75759 1.0401,0.21488 1.81129,0.81912 2.26689,1.77619 0.23286,0.48911 0.26201,0.63527 0.26201,1.31409 0,0.69059 -0.0264,0.81732 -0.27516,1.32269 -0.53019,1.07699 -1.48379,1.69379 -2.68818,1.73869 -0.43235,0.0161 -0.81911,-0.0202 -1.0693,-0.10038 z" />
  </g>
</svg>
